# xmcd CD database file
#
# Track frame offsets:
#	150
#	22507
#	36982
#	58507
#	76882
#	92182
#	109807
#	128707
#	149557
#	166882
#	180307
#
# Disc length: 2662 seconds
#
# Revision: 1
# Processed by: cddbd v1.4PL0 Copyright (c) Steve Scherf et al.
# Submitted via: CDex 1.50
#
DISCID=840a640b
DTITLE=The Veterinary Street Jazz Band - Roll on, Mississippi, roll on
DYEAR=1990
DGENRE=Jazz
TTITLE0=Roll on, Mississippi, roll on
TTITLE1=Deep Henderson
TTITLE2=Bogalousa Strut
TTITLE3=Glory of Love
TTITLE4=Black Maria
TTITLE5=Clap Hands! Here comes Charly
TTITLE6=Spanish Shawl
TTITLE7=Potomac River Blues
TTITLE8=When Erastus plays his old Kazoo
TTITLE9=You can't make a Monkey out of me
TTITLE10=Lou-Easy-An-Ia
EXTD=YEAR: 1990
EXTT0=
EXTT1=
EXTT2=
EXTT3=
EXTT4=
EXTT5=
EXTT6=
EXTT7=
EXTT8=
EXTT9=
EXTT10=
PLAYORDER=
